<svg enable-background="new 0 0 93 122.88" viewBox="0 0 93 122.88" xmlns="http://www.w3.org/2000/svg"><path d="m14.6 43.74h15.78c4.87 0 6.1 3.36 6.1 7.71 0 2.02-.29 4.29-.58 6.49-.47 3.64-.91 7.06.09 8.3 1.67 2.08 4.08 4.49 6.66 7.07 6.39 6.4 13.77 13.79 14.32 20.41.33 4.05.4 9.27-.33 14.09-.56 3.72-1.61 7.23-3.38 9.85-.91 1.34-1.97 2.54-3.33 3.46-1.37.92-3.02 1.55-5.09 1.74-.03 0-.07 0-.1 0h-26.66c-.05 0-.1 0-.14-.01-2.84-.16-5.4-.81-7.55-2.13-2.21-1.36-3.95-3.41-5.1-6.34-.03-.08-.05-.16-.06-.24-2.42-11.87-3.41-23.7-2.25-35.36 1.16-11.71 4.48-23.25 10.68-34.47.18-.36.56-.56.94-.57zm-9.85 41.1c18.15 4.31 27.95-9.61 44.29-1.6-2.41-2.85-5.26-5.71-7.92-8.38-2.62-2.62-5.07-5.08-6.82-7.24-1.59-1.97-1.09-5.84-.56-9.95.27-2.1.55-4.27.55-6.21 0-3.1-.79-5.51-3.91-5.51h-15.13c-5.84 10.77-8.99 21.83-10.1 33.05-.2 1.94-.33 3.89-.4 5.84zm41.37-77.87-.12 13.9c0 .5-.34.92-.8 1.04-3.35.95-6.3 2.23-8.56 4.22-2.2 1.94-3.78 4.6-4.49 8.36v4.75c0 .61-.49 1.1-1.1 1.1h-15.93c-.95.09-1.71-.13-2.3-.72-.54-.55-.83-1.39-.84-2.57 0-.04 0-.08 0-.11.36-3.9-.44-6.81-2.28-9.08-1.89-2.32-4.93-4.05-8.98-5.52-.57-.21-.86-.83-.66-1.4v-.01c2.19-5.8 5.57-9.5 9.8-11.8 4.18-2.27 9.16-3.13 14.62-3.28 3.41-.09 6.84-.16 10.28-.17s6.87.03 10.29.16c.62.01 1.09.52 1.07 1.13zm-2.3 13.07.1-12.05c-3.06-.1-6.11-.13-9.15-.12-3.4.01-6.81.08-10.23.17-5.14.14-9.79.94-13.63 3.02-3.54 1.92-6.41 4.96-8.39 9.63 3.9 1.52 6.88 3.35 8.88 5.8 2.21 2.71 3.17 6.11 2.77 10.6.01.55.09.88.22 1.02.07.07.25.09.52.07.06-.01.12-.02.18-.02h14.87v-3.73c0-.06.01-.13.02-.19.8-4.36 2.63-7.45 5.21-9.73 2.37-2.1 5.31-3.47 8.63-4.47zm4.54-13.39.09 13.36h6.53c.92.03 1.39-.74 1.17-2.73v-8.38c-.02-.73-.32-1.21-.88-1.46zm21.75 4.34c1.89 0 3.42 1.29 3.42 2.89s-1.53 2.89-3.42 2.89-3.42-1.29-3.42-2.89 1.53-2.89 3.42-2.89zm19.47-.29c1.89 0 3.42 1.29 3.42 2.89s-1.53 2.89-3.42 2.89-3.42-1.29-3.42-2.89 1.53-2.89 3.42-2.89zm-.38 10.89c1.89 0 3.42 1.29 3.42 2.89s-1.53 2.89-3.42 2.89-3.42-1.29-3.42-2.89 1.53-2.89 3.42-2.89zm-9.45-5.11c1.89 0 3.42 1.29 3.42 2.89s-1.53 2.89-3.42 2.89-3.42-1.29-3.42-2.89c0-1.59 1.53-2.89 3.42-2.89zm9.83-16.48c1.89 0 3.42 1.29 3.42 2.89s-1.53 2.89-3.42 2.89-3.42-1.29-3.42-2.89 1.53-2.89 3.42-2.89zm-9.73 5.49c1.89 0 3.42 1.29 3.42 2.89s-1.53 2.89-3.42 2.89-3.42-1.29-3.42-2.89c-.01-1.59 1.53-2.89 3.42-2.89zm-42.96 30.16c1.16-4.65 3.94-7.71 8.62-8.9 1.05 7.48 3.33 13.49 6.51 18.38 1.94 2.74-1.21 5.57-3.48 2.68l-7.36-12.04z"/></svg>