<svg viewBox="0 0 50 50" xmlns="http://www.w3.org/2000/svg"><path d="m26 3a1.0001 1.0001 0 0 0 -1 1v3.6972656l-3.832031 5.7480464a1.0001 1.0001 0 0 0 -.001953.001954 1.0001 1.0001 0 0 0 -.035157.058593 1.0001 1.0001 0 0 0 -.019531.03711 1.0001 1.0001 0 0 0 -.005859.015625 1.0001 1.0001 0 0 0 -.06836.173828 1.0001 1.0001 0 0 0 -.003906.015625 1.0001 1.0001 0 0 0 -.015625.068359 1.0001 1.0001 0 0 0 -.013672.089844 1.0001 1.0001 0 0 0 0 .007812 1.0001 1.0001 0 0 0 -.003906.085938 1.0001 1.0001 0 0 0 0 .011719v5.988281h-16a1.0001 1.0001 0 0 0 -1 1v24a1.0001 1.0001 0 0 0 1 1h9.275391c.764915.872658 1.686686 1.569588 2.701171 2.027344 2.581274 1.16472 5.919591.899532 8.560547-1.132813a1.0001 1.0001 0 0 0 .462891.105469h13 6a1.0001 1.0001 0 0 0 1-1v-32a1.0001 1.0001 0 0 0 -.105469-.447266l-2.894531-5.7890621v-3.7636719a1.0001 1.0001 0 0 0 -1-1zm1 2h14v2h-14zm-.464844 4h13.847656l-2 4h-14.513671zm15.464844 1.236328 2 4v30.763672h-4v-30.763672zm-19 4.763672h15v30h-10.621094c.457941-.615318.8747-1.302078 1.226563-2.082031 1.222011-2.708228 1.637624-5.851434 1.263672-8.623047s-1.558194-5.290668-3.845703-6.322266c-.571854-.258045-1.166996-.401329-1.775391-.449218-.411452-.032388-.828596-.014143-1.248047.037109v-6.560547zm-17 7h15v6a1.0001 1.0001 0 0 0 .003906.082031c-.773401.302506-1.53567.704933-2.263672 1.191407-2.325384 1.553895-4.408879 3.946139-5.630859 6.654296-1.353853 3.000416-1.186873 5.838478-.140625 8.072266h-6.96875zm18.064453 7.527344c.410808.025864.793322.114576 1.136719.269531 1.373491.619403 2.365999 2.395285 2.685547 4.763672s-.05453 5.210384-1.103516 7.535156c-2.077327 4.604696-6.197092 5.367051-8.984375 4.109375-2.787363-1.257713-4.944414-4.85152-2.867187-9.455078 1.04902-2.324843 2.932806-4.484646 4.919921-5.8125.99356-.663927 1.986924-1.104266 2.904297-1.300781.458687-.098258.897787-.13524 1.308594-.109375z"/></svg>